<?xml version="1.0" standalone="no"?>
<!DOCTYPE svg PUBLIC "-//W3C//DTD SVG 20010904//EN"
 "http://www.w3.org/TR/2001/REC-SVG-20010904/DTD/svg10.dtd">
<svg version="1.0" xmlns="http://www.w3.org/2000/svg"
 width="512.000000pt" height="512.000000pt" viewBox="0 0 512.000000 512.000000"
 preserveAspectRatio="xMidYMid meet">
<g transform="translate(0.000000,512.000000) scale(0.100000,-0.100000)"
fill="#000000" stroke="none">
<path d="M2380 4214 c-19 -2 -84 -9 -145 -15 -648 -65 -1228 -412 -1599 -958
-145 -214 -270 -501 -321 -741 -27 -125 -36 -175 -46 -265 -28 -264 -4 -569
66 -827 208 -768 827 -1367 1595 -1543 143 -33 240 -46 400 -51 382 -13 766
68 1111 234 158 76 283 153 414 255 215 167 435 421 573 662 126 220 225 502
264 750 25 159 25 507 0 665 -51 323 -156 603 -329 875 -105 166 -193 273
-333 405 -282 265 -596 436 -980 533 -145 37 -244 51 -434 63 -91 5 -191 8
-221 7 -30 -1 -66 -2 -80 -3 -14 -1 -39 -3 -55 -5 -17 -2 -53 -5 -80 -6 -28
-2 -78 -6 -113 -10 -34 -3 -65 -5 -67 -3 -3 2 -12 2 -20 0z"/>
</g>
</svg> 